REM DIRINDEX 1\5,1\2\6,1\2\7,1\3\8,1\3\9,1\4\10,1\4\11,1\4\12
REM DIRNAME folder01,folder02,folder03,folder04,folder05,folder06,folder07,folder08,folder09,folder10,folder11,folder12
TITLE ""
FILE "EJE_DB3000_5th_4B_27.mp3" MP3
  TRACK 01 AUDIO
    TITLE "0:"
    INDEX 01 00:00:00
  TRACK 02 AUDIO
    TITLE "10:cjc026_09207"
    INDEX 01 00:00:07
  TRACK 03 AUDIO
    TITLE "0:"
    INDEX 01 00:01:05
  TRACK 04 AUDIO
    TITLE "11:cjc026_09208"
    INDEX 01 00:01:30
  TRACK 05 AUDIO
    TITLE "0:"
    INDEX 01 00:02:47
  TRACK 06 AUDIO
    TITLE "12:cjc026_09209"
    INDEX 01 00:03:00
  TRACK 07 AUDIO
    TITLE "0:"
    INDEX 01 00:03:72
  TRACK 08 AUDIO
    TITLE "10:cjc026_09210"
    INDEX 01 00:04:25
  TRACK 09 AUDIO
    TITLE "0:"
    INDEX 01 00:05:18
  TRACK 10 AUDIO
    TITLE "11:cjc026_09211"
    INDEX 01 00:05:46
  TRACK 11 AUDIO
    TITLE "0:"
    INDEX 01 00:06:33
  TRACK 12 AUDIO
    TITLE "12:cjc026_09212"
    INDEX 01 00:06:61
  TRACK 13 AUDIO
    TITLE "0:"
    INDEX 01 00:07:54
  TRACK 14 AUDIO
    TITLE "10:cjc026_09213"
    INDEX 01 00:08:05
  TRACK 15 AUDIO
    TITLE "0:"
    INDEX 01 00:08:73
  TRACK 16 AUDIO
    TITLE "11:cjc026_09214"
    INDEX 01 00:09:24
  TRACK 17 AUDIO
    TITLE "0:"
    INDEX 01 00:10:31
  TRACK 18 AUDIO
    TITLE "12:cjc026_09215"
    INDEX 01 00:10:55
  TRACK 19 AUDIO
    TITLE "0:"
    INDEX 01 00:11:48
  TRACK 20 AUDIO
    TITLE "10:cjc026_09216"
    INDEX 01 00:12:01
  TRACK 21 AUDIO
    TITLE "0:"
    INDEX 01 00:12:71
  TRACK 22 AUDIO
    TITLE "11:cjc026_09217"
    INDEX 01 00:13:22
  TRACK 23 AUDIO
    TITLE "0:"
    INDEX 01 00:14:45
  TRACK 24 AUDIO
    TITLE "12:cjc026_09218"
    INDEX 01 00:14:70
  TRACK 25 AUDIO
    TITLE "0:"
    INDEX 01 00:15:68
  TRACK 26 AUDIO
    TITLE "10:cjc026_09219"
    INDEX 01 00:16:16
  TRACK 27 AUDIO
    TITLE "0:"
    INDEX 01 00:17:08
  TRACK 28 AUDIO
    TITLE "11:cjc026_09220"
    INDEX 01 00:17:37
  TRACK 29 AUDIO
    TITLE "0:"
    INDEX 01 00:18:41
  TRACK 30 AUDIO
    TITLE "12:cjc026_09221"
    INDEX 01 00:18:66
  TRACK 31 AUDIO
    TITLE "0:"
    INDEX 01 00:19:56
  TRACK 32 AUDIO
    TITLE "10:cjc026_09222"
    INDEX 01 00:20:08
  TRACK 33 AUDIO
    TITLE "0:"
    INDEX 01 00:21:00
  TRACK 34 AUDIO
    TITLE "11:cjc026_09223"
    INDEX 01 00:21:27
  TRACK 35 AUDIO
    TITLE "0:"
    INDEX 01 00:22:23
  TRACK 36 AUDIO
    TITLE "12:cjc026_09224"
    INDEX 01 00:22:50
  TRACK 37 AUDIO
    TITLE "0:"
    INDEX 01 00:23:40
  TRACK 38 AUDIO
    TITLE "10:cjc026_09225"
    INDEX 01 00:23:67
  TRACK 39 AUDIO
    TITLE "0:"
    INDEX 01 00:24:55
  TRACK 40 AUDIO
    TITLE "11:cjc026_09226"
    INDEX 01 00:25:09
  TRACK 41 AUDIO
    TITLE "0:"
    INDEX 01 00:26:11
  TRACK 42 AUDIO
    TITLE "12:cjc026_09227"
    INDEX 01 00:26:36
  TRACK 43 AUDIO
    TITLE "0:"
    INDEX 01 00:27:24
  TRACK 44 AUDIO
    TITLE "10:cjc026_09228"
    INDEX 01 00:27:53
  TRACK 45 AUDIO
    TITLE "0:"
    INDEX 01 00:28:45
  TRACK 46 AUDIO
    TITLE "11:cjc026_09229"
    INDEX 01 00:28:70
  TRACK 47 AUDIO
    TITLE "0:"
    INDEX 01 00:29:74
  TRACK 48 AUDIO
    TITLE "12:cjc026_09230"
    INDEX 01 00:30:24
  TRACK 49 AUDIO
    TITLE "0:"
    INDEX 01 00:31:16
  TRACK 50 AUDIO
    TITLE "10:cjc026_09231"
    INDEX 01 00:31:43
  TRACK 51 AUDIO
    TITLE "0:"
    INDEX 01 00:32:43
  TRACK 52 AUDIO
    TITLE "11:cjc026_09232"
    INDEX 01 00:32:70
  TRACK 53 AUDIO
    TITLE "0:"
    INDEX 01 00:33:73
  TRACK 54 AUDIO
    TITLE "12:cjc026_09233"
    INDEX 01 00:34:26
  TRACK 55 AUDIO
    TITLE "0:"
    INDEX 01 00:35:25
  TRACK 56 AUDIO
    TITLE "10:cjc026_09234"
    INDEX 01 00:35:51
  TRACK 57 AUDIO
    TITLE "0:"
    INDEX 01 00:36:56
  TRACK 58 AUDIO
    TITLE "11:cjc026_09235"
    INDEX 01 00:37:05
  TRACK 59 AUDIO
    TITLE "0:"
    INDEX 01 00:38:08
  TRACK 60 AUDIO
    TITLE "12:cjc026_09236"
    INDEX 01 00:38:30
  TRACK 61 AUDIO
    TITLE "0:"
    INDEX 01 00:39:35
  TRACK 62 AUDIO
    TITLE "10:cjc026_09237"
    INDEX 01 00:39:60
  TRACK 63 AUDIO
    TITLE "0:"
    INDEX 01 00:40:54
  TRACK 64 AUDIO
    TITLE "11:cjc026_09238"
    INDEX 01 00:41:04
  TRACK 65 AUDIO
    TITLE "0:"
    INDEX 01 00:42:08
  TRACK 66 AUDIO
    TITLE "12:cjc026_09239"
    INDEX 01 00:42:33
  TRACK 67 AUDIO
    TITLE "0:"
    INDEX 01 00:43:27
  TRACK 68 AUDIO
    TITLE "10:cjc026_09240"
    INDEX 01 00:43:52
  TRACK 69 AUDIO
    TITLE "0:"
    INDEX 01 00:44:52
  TRACK 70 AUDIO
    TITLE "11:cjc026_09241"
    INDEX 01 00:45:02
  TRACK 71 AUDIO
    TITLE "0:"
    INDEX 01 00:46:02
  TRACK 72 AUDIO
    TITLE "12:cjc026_09242"
    INDEX 01 00:46:27
  TRACK 73 AUDIO
    TITLE "0:"
    INDEX 01 00:47:25
  TRACK 74 AUDIO
    TITLE "10:cjc026_09243"
    INDEX 01 00:47:54
  TRACK 75 AUDIO
    TITLE "0:"
    INDEX 01 00:48:42
  TRACK 76 AUDIO
    TITLE "11:cjc026_09244"
    INDEX 01 00:48:69
  TRACK 77 AUDIO
    TITLE "0:"
    INDEX 01 00:50:03
  TRACK 78 AUDIO
    TITLE "12:cjc026_09245"
    INDEX 01 00:50:31
  TRACK 79 AUDIO
    TITLE "0:"
    INDEX 01 00:51:18
